<svg width="171" height="74" viewBox="0 0 171 74" fill="none" xmlns="http://www.w3.org/2000/svg">
<g filter="url(#filter0_d_19_2)">
<path d="M10.0371 5.53394H167V65.9043H10.0371V5.53394Z" fill="#1E1E1E"/>
<path d="M4 0H160.963V60.3704H4V0Z" fill="white"/>
<path d="M36.8069 15.8961V18.8671H27.6932V44H24.4814V18.8671H15.3677V15.8961H36.8069ZM50.2084 28.8239V26.6559H53.2998V44H50.2084V41.8521C48.6627 43.4781 46.5348 44.4818 44.0255 44.4818C38.6055 44.4818 34.9921 40.3866 34.9921 35.3681C34.9921 30.3094 38.6055 26.1741 44.0255 26.1741C46.5348 26.1741 48.6627 27.1979 50.2084 28.8239ZM44.2262 41.4706C47.5586 41.4706 50.369 39.1822 50.369 35.3279C50.369 31.554 47.5586 29.1852 44.2262 29.1852C40.9341 29.1852 38.2843 31.554 38.2843 35.3279C38.2843 39.1822 40.9341 41.4706 44.2262 41.4706ZM61.273 21.4767H58.1816V17.1005H61.273V21.4767ZM61.273 44H58.1816V26.6559H61.273V44ZM87.7798 26.1741C91.7143 26.1741 94.3641 28.6231 94.3641 34.2439V44H91.2727V34.4848C91.2727 31.1525 90.0682 29.0648 87.0571 29.0648C84.0661 29.0648 81.8378 31.5138 81.7977 35.5488V44H78.7062V34.4848C78.7062 31.1525 77.5018 29.0648 74.3702 29.0648C71.4795 29.0648 69.2714 31.5941 69.2714 35.7696V44H66.1799V26.6559H69.2714V29.3458C70.6765 27.1979 72.7643 26.1741 75.2936 26.1741C77.9434 26.1741 80.0111 27.3183 81.0549 29.8677C83.1627 26.957 85.3709 26.1741 87.7798 26.1741ZM105.938 44.4818C101.723 44.4818 99.033 42.1933 99.033 36.3316V26.6559H102.124V36.0908C102.124 39.6238 103.369 41.5911 106.741 41.5911C109.592 41.5911 111.76 39.0617 111.76 34.8863V26.6559H114.851V44H111.76V41.5108C110.415 43.3175 108.307 44.4818 105.938 44.4818ZM128.851 26.6559H129.654V29.5466H128.048C125.077 29.5466 122.829 32.0759 122.829 36.2513V44H119.737V26.6559H122.829V30.1287C124.194 27.6596 126.282 26.6559 128.851 26.6559ZM148.442 44H144.748L139.087 35.4685L136.357 37.8573V44H133.266V14.6916H136.357V34.1235L145.872 25.7726L147.82 27.8804L141.396 33.461L148.442 44Z" fill="#1E1E1E"/>
</g>
<defs>
<filter id="filter0_d_19_2" x="0" y="0" width="171" height="73.9043" filterUnits="userSpaceOnUse" color-interpolation-filters="sRGB">
<feFlood flood-opacity="0" result="BackgroundImageFix"/>
<feColorMatrix in="SourceAlpha" type="matrix" values="0 0 0 0 0 0 0 0 0 0 0 0 0 0 0 0 0 0 127 0" result="hardAlpha"/>
<feOffset dy="4"/>
<feGaussianBlur stdDeviation="2"/>
<feComposite in2="hardAlpha" operator="out"/>
<feColorMatrix type="matrix" values="0 0 0 0 0 0 0 0 0 0 0 0 0 0 0 0 0 0 0.25 0"/>
<feBlend mode="normal" in2="BackgroundImageFix" result="effect1_dropShadow_19_2"/>
<feBlend mode="normal" in="SourceGraphic" in2="effect1_dropShadow_19_2" result="shape"/>
</filter>
</defs>
</svg>
